<svg xmlns="http://www.w3.org/2000/svg" xmlns:xlink="http://www.w3.org/1999/xlink" id="processonSvg1000" viewBox="71.0 72.0 760.2946428571429 580.0" width="760.2946428571429" height="580.0"><defs id="ProcessOnDefs1001"><marker id="ProcessOnMarker1036" markerUnits="userSpaceOnUse" orient="auto" markerWidth="16.23606797749979" markerHeight="10.550836550532098" viewBox="-1.0 -1.3763819204711736 16.23606797749979 10.550836550532098" refX="-1.0" refY="3.8990363547948754"><path id="ProcessOnPath1037" d="M12.0 3.8990363547948754L0.0 7.798072709589751V0.0Z" stroke="#323232" stroke-width="2.0" fill="#323232" transform="matrix(1.0,0.0,0.0,1.0,0.0,0.0)"/></marker><marker id="ProcessOnMarker1065" markerUnits="userSpaceOnUse" orient="auto" markerWidth="16.23606797749979" markerHeight="10.550836550532098" viewBox="-1.0 -1.3763819204711736 16.23606797749979 10.550836550532098" refX="-1.0" refY="3.8990363547948754"><path id="ProcessOnPath1066" d="M12.0 3.8990363547948754L0.0 7.798072709589751V0.0Z" stroke="#323232" stroke-width="2.0" fill="#323232" transform="matrix(1.0,0.0,0.0,1.0,0.0,0.0)"/></marker><marker id="ProcessOnMarker1074" markerUnits="userSpaceOnUse" orient="auto" markerWidth="16.23606797749979" markerHeight="10.550836550532098" viewBox="-1.0 -1.3763819204711736 16.23606797749979 10.550836550532098" refX="-1.0" refY="3.8990363547948754"><path id="ProcessOnPath1075" d="M12.0 3.8990363547948754L0.0 7.798072709589751V0.0Z" stroke="#323232" stroke-width="2.0" fill="#323232" transform="matrix(1.0,0.0,0.0,1.0,0.0,0.0)"/></marker><marker id="ProcessOnMarker1078" markerUnits="userSpaceOnUse" orient="auto" markerWidth="16.23606797749979" markerHeight="10.550836550532098" viewBox="-1.0 -1.3763819204711736 16.23606797749979 10.550836550532098" refX="-1.0" refY="3.8990363547948754"><path id="ProcessOnPath1079" d="M12.0 3.8990363547948754L0.0 7.798072709589751V0.0Z" stroke="#323232" stroke-width="2.0" fill="#323232" transform="matrix(1.0,0.0,0.0,1.0,0.0,0.0)"/></marker><marker id="ProcessOnMarker1082" markerUnits="userSpaceOnUse" orient="auto" markerWidth="16.23606797749979" markerHeight="10.550836550532098" viewBox="-1.0 -1.3763819204711736 16.23606797749979 10.550836550532098" refX="-1.0" refY="3.8990363547948754"><path id="ProcessOnPath1083" d="M12.0 3.8990363547948754L0.0 7.798072709589751V0.0Z" stroke="#323232" stroke-width="2.0" fill="#323232" transform="matrix(1.0,0.0,0.0,1.0,0.0,0.0)"/></marker><marker id="ProcessOnMarker1091" markerUnits="userSpaceOnUse" orient="auto" markerWidth="16.23606797749979" markerHeight="10.550836550532098" viewBox="-1.0 -1.3763819204711736 16.23606797749979 10.550836550532098" refX="-1.0" refY="3.8990363547948754"><path id="ProcessOnPath1092" d="M12.0 3.8990363547948754L0.0 7.798072709589751V0.0Z" stroke="#323232" stroke-width="2.0" fill="#323232" transform="matrix(1.0,0.0,0.0,1.0,0.0,0.0)"/></marker><marker id="ProcessOnMarker1095" markerUnits="userSpaceOnUse" orient="auto" markerWidth="16.23606797749979" markerHeight="10.550836550532098" viewBox="-1.0 -1.3763819204711736 16.23606797749979 10.550836550532098" refX="-1.0" refY="3.8990363547948754"><path id="ProcessOnPath1096" d="M12.0 3.8990363547948754L0.0 7.798072709589751V0.0Z" stroke="#323232" stroke-width="2.0" fill="#323232" transform="matrix(1.0,0.0,0.0,1.0,0.0,0.0)"/></marker><marker id="ProcessOnMarker1115" markerUnits="userSpaceOnUse" orient="auto" markerWidth="16.23606797749979" markerHeight="10.550836550532098" viewBox="-1.0 -1.3763819204711736 16.23606797749979 10.550836550532098" refX="-1.0" refY="3.8990363547948754"><path id="ProcessOnPath1116" d="M12.0 3.8990363547948754L0.0 7.798072709589751V0.0Z" stroke="#323232" stroke-width="2.0" fill="#323232" transform="matrix(1.0,0.0,0.0,1.0,0.0,0.0)"/></marker><marker id="ProcessOnMarker1119" markerUnits="userSpaceOnUse" orient="auto" markerWidth="16.23606797749979" markerHeight="10.550836550532098" viewBox="-1.0 -1.3763819204711736 16.23606797749979 10.550836550532098" refX="-1.0" refY="3.8990363547948754"><path id="ProcessOnPath1120" d="M12.0 3.8990363547948754L0.0 7.798072709589751V0.0Z" stroke="#323232" stroke-width="2.0" fill="#323232" transform="matrix(1.0,0.0,0.0,1.0,0.0,0.0)"/></marker><marker id="ProcessOnMarker1123" markerUnits="userSpaceOnUse" orient="auto" markerWidth="16.23606797749979" markerHeight="10.550836550532098" viewBox="-1.0 -1.3763819204711736 16.23606797749979 10.550836550532098" refX="-1.0" refY="3.8990363547948754"><path id="ProcessOnPath1124" d="M12.0 3.8990363547948754L0.0 7.798072709589751V0.0Z" stroke="#323232" stroke-width="2.0" fill="#323232" transform="matrix(1.0,0.0,0.0,1.0,0.0,0.0)"/></marker><marker id="ProcessOnMarker1127" markerUnits="userSpaceOnUse" orient="auto" markerWidth="16.23606797749979" markerHeight="10.550836550532098" viewBox="-1.0 -1.3763819204711736 16.23606797749979 10.550836550532098" refX="-1.0" refY="3.8990363547948754"><path id="ProcessOnPath1128" d="M12.0 3.8990363547948754L0.0 7.798072709589751V0.0Z" stroke="#323232" stroke-width="2.0" fill="#323232" transform="matrix(1.0,0.0,0.0,1.0,0.0,0.0)"/></marker><marker id="ProcessOnMarker1131" markerUnits="userSpaceOnUse" orient="auto" markerWidth="16.23606797749979" markerHeight="10.550836550532098" viewBox="-1.0 -1.3763819204711736 16.23606797749979 10.550836550532098" refX="-1.0" refY="3.8990363547948754"><path id="ProcessOnPath1132" d="M12.0 3.8990363547948754L0.0 7.798072709589751V0.0Z" stroke="#323232" stroke-width="2.0" fill="#323232" transform="matrix(1.0,0.0,0.0,1.0,0.0,0.0)"/></marker><marker id="ProcessOnMarker1135" markerUnits="userSpaceOnUse" orient="auto" markerWidth="16.23606797749979" markerHeight="10.550836550532098" viewBox="-1.0 -1.3763819204711736 16.23606797749979 10.550836550532098" refX="-1.0" refY="3.8990363547948754"><path id="ProcessOnPath1136" d="M12.0 3.8990363547948754L0.0 7.798072709589751V0.0Z" stroke="#323232" stroke-width="2.0" fill="#323232" transform="matrix(1.0,0.0,0.0,1.0,0.0,0.0)"/></marker></defs><g id="ProcessOnG1002"><path id="ProcessOnPath1003" d="M71.0 72.0H831.2946428571429V652.0H71.0V72.0Z" fill="#ffffff"/><g id="ProcessOnG1004"><g id="ProcessOnG1005" transform="matrix(1.0,0.0,0.0,1.0,91.0,92.0)" opacity="1.0"><path id="ProcessOnPath1006" d="M0.0 0.0L718.0 0.0L718.0 540.0L0.0 540.0Z" stroke="#323232" stroke-width="2.0" stroke-dasharray="none" opacity="1.0" fill="none"/><path id="ProcessOnPath1007" d="M0.0 0.0L718.0 0.0L718.0 40.0L0.0 40.0Z" stroke="#323232" stroke-width="2.0" stroke-dasharray="none" opacity="1.0" fill="#e5ccff"/><g id="ProcessOnG1008" transform="matrix(1.0,0.0,0.0,1.0,10.0,10.0)"><text id="ProcessOnText1009" fill="#323232" font-weight="bold" font-style="italic" text-decoration="blink" font-family="Arial,宋体" text-anchor="start" font-size="16" x="0.0" y="16.4">Wireless Network Reproduction Solution</text></g></g><g id="ProcessOnG1010" transform="matrix(1.0,0.0,0.0,1.0,91.0,132.0)" opacity="1.0"><path id="ProcessOnPath1011" d="M0.0 0.0L178.0 0.0L178.0 500.0L0.0 500.0Z" stroke="#323232" stroke-width="2.0" stroke-dasharray="none" opacity="1.0" fill="none"/><path id="ProcessOnPath1012" d="M0.0 0.0L178.0 0.0L178.0 30.0L0.0 30.0Z" stroke="#323232" stroke-width="2.0" stroke-dasharray="none" opacity="1.0" fill="#cce5ff"/><g id="ProcessOnG1013" transform="matrix(1.0,0.0,0.0,1.0,10.0,6.875)"><text id="ProcessOnText1014" fill="#323232" font-weight="bold" font-style="italic" text-decoration="blink" font-family="Arial,宋体" text-anchor="middle" font-size="13" x="79.0" y="13.325">Hardware</text></g></g><g id="ProcessOnG1015" transform="matrix(1.0,0.0,0.0,1.0,269.0,132.0)" opacity="1.0"><path id="ProcessOnPath1016" d="M0.0 0.0L175.0 0.0L175.0 500.0L0.0 500.0Z" stroke="#323232" stroke-width="2.0" stroke-dasharray="none" opacity="1.0" fill="none"/><path id="ProcessOnPath1017" d="M0.0 0.0L175.0 0.0L175.0 30.0L0.0 30.0Z" stroke="#323232" stroke-width="2.0" stroke-dasharray="none" opacity="1.0" fill="#ff99cc"/><g id="ProcessOnG1018" transform="matrix(1.0,0.0,0.0,1.0,10.0,6.875)"><text id="ProcessOnText1019" fill="#323232" font-weight="bold" font-style="italic" text-decoration="blink" font-family="Arial,宋体" text-anchor="middle" font-size="13" x="77.5" y="13.325">Kernel Space</text></g></g><g id="ProcessOnG1020" transform="matrix(1.0,0.0,0.0,1.0,444.0,132.0)" opacity="1.0"><path id="ProcessOnPath1021" d="M0.0 0.0L169.0 0.0L169.0 500.0L0.0 500.0Z" stroke="#323232" stroke-width="2.0" stroke-dasharray="none" opacity="1.0" fill="none"/><path id="ProcessOnPath1022" d="M0.0 0.0L169.0 0.0L169.0 30.0L0.0 30.0Z" stroke="#323232" stroke-width="2.0" stroke-dasharray="none" opacity="1.0" fill="#ccff99"/><g id="ProcessOnG1023" transform="matrix(1.0,0.0,0.0,1.0,10.0,6.875)"><text id="ProcessOnText1024" fill="#323232" font-weight="bold" font-style="italic" text-decoration="blink" font-family="Arial,宋体" text-anchor="middle" font-size="13" x="74.5" y="13.325">User Space</text></g></g><g id="ProcessOnG1025" transform="matrix(1.0,0.0,0.0,1.0,613.0,132.0)" opacity="1.0"><path id="ProcessOnPath1026" d="M0.0 0.0L196.0 0.0L196.0 500.0L0.0 500.0Z" stroke="#323232" stroke-width="2.0" stroke-dasharray="none" opacity="1.0" fill="none"/><path id="ProcessOnPath1027" d="M0.0 0.0L196.0 0.0L196.0 30.0L0.0 30.0Z" stroke="#323232" stroke-width="2.0" stroke-dasharray="none" opacity="1.0" fill="#ffcc99"/><g id="ProcessOnG1028" transform="matrix(1.0,0.0,0.0,1.0,10.0,6.875)"><text id="ProcessOnText1029" fill="#323232" font-weight="bold" font-style="italic" text-decoration="blink" font-family="Arial,宋体" text-anchor="middle" font-size="13" x="88.0" y="13.325">Application</text></g></g><g id="ProcessOnG1030" transform="matrix(1.0,0.0,0.0,1.0,117.5,495.0)" opacity="1.0"><path id="ProcessOnPath1031" d="M16.666666666666668 0.0L83.33333333333333 0.0C105.55555555555556 0.0 105.55555555555556 50.0 83.33333333333333 50.0L16.666666666666668 50.0C-5.555555555555556 50.0 -5.555555555555556 0.0 16.666666666666668 0.0Z" stroke="#323232" stroke-width="2.0" stroke-dasharray="none" opacity="1.0" fill="#b3ff66"/><g id="ProcessOnG1032" transform="matrix(1.0,0.0,0.0,1.0,10.0,16.875)"><text id="ProcessOnText1033" fill="#323232" font-weight="bold" font-style="normal" text-decoration="blink" font-family="Arial,宋体" text-anchor="middle" font-size="13" x="40.0" y="13.325">Packets</text></g></g><g id="ProcessOnG1034"><path id="ProcessOnPath1035" d="M217.5 520.0L247.5 520.0L247.5 406.5L108.0 406.5L108.0 283.0L122.76393202250021 283.0" stroke="#323232" stroke-width="2.0" stroke-dasharray="none" fill="none" marker-end="url(#ProcessOnMarker1036)"/></g><g id="ProcessOnG1038" transform="matrix(1.0,0.0,0.0,1.0,138.0,248.0)" opacity="1.0"><path id="ProcessOnPath1039" d="M0.0 0.0L100.0 0.0L100.0 70.0L0.0 70.0Z" stroke="#323232" stroke-width="2.0" stroke-dasharray="none" opacity="1.0" fill="#66ffff"/><g id="ProcessOnG1040" transform="matrix(1.0,0.0,0.0,1.0,10.0,18.75)"><text id="ProcessOnText1041" fill="#323232" font-weight="bold" font-style="normal" text-decoration="blink" font-family="Arial,宋体" text-anchor="middle" font-size="13" x="40.0" y="13.325">Network</text><text id="ProcessOnText1042" fill="#323232" font-weight="bold" font-style="normal" text-decoration="blink" font-family="Arial,宋体" text-anchor="middle" font-size="13" x="40.0" y="29.575">Card</text></g></g><g id="ProcessOnG1043" transform="matrix(1.0,0.0,0.0,1.0,648.0,545.0)" opacity="1.0"><path id="ProcessOnPath1044" d="M0.0 0.0L95.0 0.0L95.0 42.0L0.0 42.0Z" stroke="#323232" stroke-width="2.0" stroke-dasharray="none" opacity="1.0" fill="#ff8000"/><g id="ProcessOnG1045" transform="matrix(1.0,0.0,0.0,1.0,10.0,4.75)"><text id="ProcessOnText1046" fill="#323232" font-weight="bold" font-style="normal" text-decoration="blink" font-family="Arial,宋体" text-anchor="middle" font-size="13" x="37.5" y="13.325">Web</text><text id="ProcessOnText1047" fill="#323232" font-weight="bold" font-style="normal" text-decoration="blink" font-family="Arial,宋体" text-anchor="middle" font-size="13" x="37.5" y="29.575">Browser</text></g></g><g id="ProcessOnG1048" transform="matrix(1.0,0.0,0.0,1.0,306.75,545.0)" opacity="1.0"><path id="ProcessOnPath1049" d="M0.0 0.0L100.0 0.0L100.0 70.0L0.0 70.0Z" stroke="#323232" stroke-width="2.0" stroke-dasharray="none" opacity="1.0" fill="#ff3333"/><g id="ProcessOnG1050" transform="matrix(1.0,0.0,0.0,1.0,10.0,18.75)"><text id="ProcessOnText1051" fill="#323232" font-weight="bold" font-style="normal" text-decoration="blink" font-family="Arial,宋体" text-anchor="middle" font-size="13" x="40.0" y="13.325">Protocol</text><text id="ProcessOnText1052" fill="#323232" font-weight="bold" font-style="normal" text-decoration="blink" font-family="Arial,宋体" text-anchor="middle" font-size="13" x="40.0" y="29.575">Stack</text></g></g><g id="ProcessOnG1053" transform="matrix(1.0,0.0,0.0,1.0,647.0,592.0)" opacity="1.0"><path id="ProcessOnPath1054" d="M0.0 0.0L97.0 0.0L97.0 36.0L0.0 36.0Z" stroke="#323232" stroke-width="2.0" stroke-dasharray="none" opacity="1.0" fill="#ff8000"/><g id="ProcessOnG1055" transform="matrix(1.0,0.0,0.0,1.0,10.0,1.75)"><text id="ProcessOnText1056" fill="#323232" font-weight="bold" font-style="normal" text-decoration="blink" font-family="Arial,宋体" text-anchor="middle" font-size="13" x="38.5" y="13.325">Android</text><text id="ProcessOnText1057" fill="#323232" font-weight="bold" font-style="normal" text-decoration="blink" font-family="Arial,宋体" text-anchor="middle" font-size="13" x="38.5" y="29.575">Emulator</text></g></g><g id="ProcessOnG1058" transform="matrix(1.0,0.0,0.0,1.0,466.0,340.5)" opacity="1.0"><path id="ProcessOnPath1059" d="M0.0 0.0L111.0 0.0L111.0 54.0L0.0 54.0Z" stroke="#323232" stroke-width="2.0" stroke-dasharray="none" opacity="1.0" fill="#ffff00"/><g id="ProcessOnG1060" transform="matrix(1.0,0.0,0.0,1.0,10.0,7.0)"><text id="ProcessOnText1061" fill="#323232" font-weight="bold" font-style="normal" text-decoration="blink" font-family="Arial,宋体" text-anchor="middle" font-size="16" x="45.5" y="16.4">Divert</text><text id="ProcessOnText1062" fill="#323232" font-weight="bold" font-style="normal" text-decoration="blink" font-family="Arial,宋体" text-anchor="middle" font-size="16" x="45.5" y="36.4">Socket</text></g></g><g id="ProcessOnG1063"><path id="ProcessOnPath1064" d="M406.75 580.0L527.375 580.0L527.375 566.0L632.7639320225002 566.0" stroke="#323232" stroke-width="2.0" stroke-dasharray="none" fill="none" marker-end="url(#ProcessOnMarker1065)"/></g><g id="ProcessOnG1067" transform="matrix(1.0,0.0,0.0,1.0,306.75,189.0)" opacity="1.0"><path id="ProcessOnPath1068" d="M0.0 0.0L100.0 0.0L100.0 70.0L0.0 70.0Z" stroke="#323232" stroke-width="2.0" stroke-dasharray="none" opacity="1.0" fill="#ff33ff"/><g id="ProcessOnG1069" transform="matrix(1.0,0.0,0.0,1.0,10.0,18.75)"><text id="ProcessOnText1070" fill="#323232" font-weight="bold" font-style="normal" text-decoration="blink" font-family="Arial,宋体" text-anchor="middle" font-size="13" x="40.0" y="13.325">Card</text><text id="ProcessOnText1071" fill="#323232" font-weight="bold" font-style="normal" text-decoration="blink" font-family="Arial,宋体" text-anchor="middle" font-size="13" x="40.0" y="29.575">Driver</text></g></g><g id="ProcessOnG1072"><path id="ProcessOnPath1073" d="M406.75 580.0L526.875 580.0L526.875 610.0L631.7639320225002 610.0" stroke="#323232" stroke-width="2.0" stroke-dasharray="none" fill="none" marker-end="url(#ProcessOnMarker1074)"/></g><g id="ProcessOnG1076"><path id="ProcessOnPath1077" d="M188.0 248.0L188.0 224.0L291.5139320225002 224.0" stroke="#323232" stroke-width="2.0" stroke-dasharray="none" fill="none" marker-end="url(#ProcessOnMarker1078)"/></g><g id="ProcessOnG1080"><path id="ProcessOnPath1081" d="M356.75 259.0L356.75 294.0L356.75 294.0L356.75 313.7639320225002" stroke="#323232" stroke-width="2.0" stroke-dasharray="none" fill="none" marker-end="url(#ProcessOnMarker1082)"/></g><g id="ProcessOnG1084" transform="matrix(1.0,0.0,0.0,1.0,306.0,329.0)" opacity="1.0"><path id="ProcessOnPath1085" d="M0.0 38.5L50.75 0.0L101.5 38.5L50.75 77.0L0.0 38.5Z" stroke="#323232" stroke-width="2.0" stroke-dasharray="none" opacity="1.0" fill="#ff0080"/><g id="ProcessOnG1086" transform="matrix(1.0,0.0,0.0,1.0,10.0,22.25)"><text id="ProcessOnText1087" fill="#000000" font-weight="bold" font-style="normal" text-decoration="blink" font-family="微软雅黑" text-anchor="middle" font-size="13" x="40.75" y="13.325">Hit</text><text id="ProcessOnText1088" fill="#000000" font-weight="bold" font-style="normal" text-decoration="blink" font-family="微软雅黑" text-anchor="middle" font-size="13" x="40.75" y="29.575">Rule?</text></g></g><g id="ProcessOnG1089"><path id="ProcessOnPath1090" d="M356.75 406.0L356.75 475.5L356.75 475.5L356.75 529.7639320225002" stroke="#323232" stroke-width="2.0" stroke-dasharray="none" fill="none" marker-end="url(#ProcessOnMarker1091)"/></g><g id="ProcessOnG1093"><path id="ProcessOnPath1094" d="M407.5 367.5L436.75 367.5L436.75 367.5L450.7639320225002 367.5" stroke="#323232" stroke-width="2.0" stroke-dasharray="none" fill="none" marker-end="url(#ProcessOnMarker1095)"/></g><g id="ProcessOnG1097" transform="matrix(6.123233995736766E-17,1.0,-1.0,6.123233995736766E-17,694.5,197.5)" opacity="1.0"><path id="ProcessOnPath1098" d="M9.405803571428565 0.0L57.32291666666663 0.0C64.17329545454542 0.0 64.17329545454542 32.29464285714289 57.32291666666663 32.29464285714289L9.405803571428565 32.29464285714289C-3.1352678571428556 32.29464285714289 -3.1352678571428556 0.0 9.405803571428565 0.0ZM57.32291666666663 0.0C50.59486607142853 0.0 50.59486607142853 32.29464285714289 57.32291666666663 32.29464285714289C50.59486607142853 32.29464285714289 50.59486607142853 0.0 57.32291666666663 0.0" stroke="#323232" stroke-width="2.0" stroke-dasharray="none" opacity="1.0" fill="#ccccff"/><g id="ProcessOnG1099" transform="matrix(1.0,0.0,0.0,1.0,0.0,8.022321428571445)"><text id="ProcessOnText1100" fill="#000000" font-weight="bold" font-style="normal" text-decoration="blink" font-family="微软雅黑" text-anchor="middle" font-size="13" x="25.082142857142845" y="13.325">Delay</text></g></g><g id="ProcessOnG1101" transform="matrix(6.123233995736766E-17,1.0,-1.0,6.123233995736766E-17,792.0,307.0)" opacity="1.0"><path id="ProcessOnPath1102" d="M9.564014994286037 0.0L57.22011662222474 0.0C65.54373178182024 0.0 65.54373178182024 39.23990003809308 57.22011662222474 39.23990003809308L9.564014994286037 39.23990003809308C-3.188004998095346 39.23990003809308 -3.188004998095346 0.0 9.564014994286037 0.0ZM57.22011662222474 0.0C49.04513744762201 0.0 49.04513744762201 39.23990003809308 57.22011662222474 39.23990003809308C49.04513744762201 39.23990003809308 49.04513744762201 0.0 57.22011662222474 0.0" stroke="#323232" stroke-width="2.0" stroke-dasharray="none" opacity="1.0" fill="#ccccff"/><g id="ProcessOnG1103" transform="matrix(1.0,0.0,0.0,1.0,0.0,10.244950019046541)"><text id="ProcessOnText1104" fill="#000000" font-weight="bold" font-style="normal" text-decoration="blink" font-family="微软雅黑" text-anchor="middle" font-size="15" x="25.50403998476277" y="15.375">Drop</text></g></g><g id="ProcessOnG1105" transform="matrix(6.123233995736766E-17,1.0,-1.0,6.123233995736766E-17,685.0,340.5565311324677)" opacity="1.0"><path id="ProcessOnPath1106" d="M18.366520330129855 0.0L115.27521302772425 0.0C124.39844773293459 0.0 124.39844773293459 43.00953503884875 115.27521302772425 43.00953503884875L18.366520330129855 43.00953503884875C-6.122173443376619 43.00953503884875 -6.122173443376619 0.0 18.366520330129855 0.0ZM115.27521302772425 0.0C106.31489322796409 0.0 106.31489322796409 43.00953503884875 115.27521302772425 43.00953503884875C106.31489322796409 43.00953503884875 106.31489322796409 0.0 115.27521302772425 0.0" stroke="#323232" stroke-width="2.0" stroke-dasharray="none" opacity="1.0" fill="#ccccff"/><g id="ProcessOnG1107" transform="matrix(1.0,0.0,0.0,1.0,0.0,12.129767519424377)"><text id="ProcessOnText1108" fill="#000000" font-weight="bold" font-style="normal" text-decoration="blink" font-family="微软雅黑" text-anchor="middle" font-size="15" x="48.97738754701295" y="15.375">Bandwidth</text></g></g><g id="ProcessOnG1109" transform="matrix(6.123233995736766E-17,1.0,-1.0,6.123233995736766E-17,793.2374986856862,437.70535714285705)" opacity="1.0"><path id="ProcessOnPath1110" d="M10.094196428571433 0.0L62.097917104771284 0.0C68.71193169869878 0.0 68.71193169869878 31.180354514229634 62.097917104771284 31.180354514229634L10.094196428571433 31.180354514229634C-3.364732142857145 31.180354514229634 -3.364732142857145 0.0 10.094196428571433 0.0ZM62.097917104771284 0.0C55.60200991430678 0.0 55.60200991430678 31.180354514229634 62.097917104771284 31.180354514229634C55.60200991430678 31.180354514229634 55.60200991430678 0.0 62.097917104771284 0.0" stroke="#323232" stroke-width="2.0" stroke-dasharray="none" opacity="1.0" fill="#ccccff"/><g id="ProcessOnG1111" transform="matrix(1.0,0.0,0.0,1.0,0.0,4.340177257114817)"><text id="ProcessOnText1112" fill="#000000" font-weight="bold" font-style="normal" text-decoration="blink" font-family="微软雅黑" text-anchor="middle" font-size="18" x="26.91785714285716" y="18.45">......</text></g></g><g id="ProcessOnG1113"><path id="ProcessOnPath1114" d="M577.0 367.5L607.0 367.5L607.0 167.5L678.3526785714286 167.5L678.3526785714286 182.2639320225002" stroke="#323232" stroke-width="2.0" stroke-dasharray="none" fill="none" marker-end="url(#ProcessOnMarker1115)"/></g><g id="ProcessOnG1117"><path id="ProcessOnPath1118" d="M678.3526785714286 260.2053571428571L678.3526785714286 283.60267857142856L772.3800499809535 283.60267857142856L772.3800499809535 291.7639320225002" stroke="#323232" stroke-width="2.0" stroke-dasharray="none" fill="none" marker-end="url(#ProcessOnMarker1119)"/></g><g id="ProcessOnG1121"><path id="ProcessOnPath1122" d="M772.3800499809535 370.7600999619069L772.3800499809535 400.7600999619069L732.6084834571709 400.7600999619069L732.6084834571709 310.5565311324678L663.4952324805754 310.5565311324678L663.4952324805754 325.320463154968" stroke="#323232" stroke-width="2.0" stroke-dasharray="none" fill="none" marker-end="url(#ProcessOnMarker1123)"/></g><g id="ProcessOnG1125"><path id="ProcessOnPath1126" d="M663.4952324805756 463.00000000000006L663.4952324805756 493.00000000000006L734.3584834571709 493.00000000000006L734.3584834571709 407.70535714285705L777.6473214285714 407.70535714285705L777.6473214285714 422.4692891653573" stroke="#323232" stroke-width="2.0" stroke-dasharray="none" fill="none" marker-end="url(#ProcessOnMarker1127)"/></g><g id="ProcessOnG1129"><path id="ProcessOnPath1130" d="M777.6473214285714 504.99999999999994L777.6473214285714 525.0L695.5 525.0L695.5 529.7639320225002" stroke="#323232" stroke-width="2.0" stroke-dasharray="none" fill="none" marker-end="url(#ProcessOnMarker1131)"/></g><g id="ProcessOnG1133"><path id="ProcessOnPath1134" d="M777.6473214285714 504.99999999999994L777.6473214285714 610.0L759.2360679774998 610.0" stroke="#323232" stroke-width="2.0" stroke-dasharray="none" fill="none" marker-end="url(#ProcessOnMarker1135)"/></g></g></g></svg>